<mxfile host="Electron" modified="2023-12-29T18:02:55.030Z" agent="Mozilla/5.0 (Macintosh; Intel Mac OS X 10_15_7) AppleWebKit/537.36 (KHTML, like Gecko) draw.io/21.2.8 Chrome/112.0.5615.165 Electron/24.2.0 Safari/537.36" etag="wE_7jRmZR9wjVrxbn8uB" version="21.2.8" type="device">
  <diagram name="Page-1" id="lfbP-6xO54JcDAWGtIG4">
    <mxGraphModel dx="2566" dy="1048" grid="1" gridSize="10" guides="1" tooltips="1" connect="1" arrows="1" fold="1" page="1" pageScale="1" pageWidth="827" pageHeight="1169" math="0" shadow="0">
      <root>
        <mxCell id="0" />
        <mxCell id="1" parent="0" />
        <mxCell id="VeJX8Lp-VsLnqPYJJAG0-2" value="node-6" style="ellipse;whiteSpace=wrap;html=1;fillColor=#f8cecc;strokeColor=#b85450;" vertex="1" parent="1">
          <mxGeometry x="240" y="420" width="120" height="80" as="geometry" />
        </mxCell>
        <mxCell id="VeJX8Lp-VsLnqPYJJAG0-11" style="rounded=0;orthogonalLoop=1;jettySize=auto;html=1;" edge="1" parent="1" source="VeJX8Lp-VsLnqPYJJAG0-3" target="VeJX8Lp-VsLnqPYJJAG0-4">
          <mxGeometry relative="1" as="geometry" />
        </mxCell>
        <mxCell id="VeJX8Lp-VsLnqPYJJAG0-13" style="rounded=0;orthogonalLoop=1;jettySize=auto;html=1;" edge="1" parent="1" source="VeJX8Lp-VsLnqPYJJAG0-3" target="VeJX8Lp-VsLnqPYJJAG0-2">
          <mxGeometry relative="1" as="geometry" />
        </mxCell>
        <mxCell id="VeJX8Lp-VsLnqPYJJAG0-14" style="rounded=0;orthogonalLoop=1;jettySize=auto;html=1;exitX=0;exitY=1;exitDx=0;exitDy=0;" edge="1" parent="1" source="VeJX8Lp-VsLnqPYJJAG0-3" target="VeJX8Lp-VsLnqPYJJAG0-5">
          <mxGeometry relative="1" as="geometry" />
        </mxCell>
        <mxCell id="VeJX8Lp-VsLnqPYJJAG0-3" value="node-1" style="ellipse;whiteSpace=wrap;html=1;fillColor=#fff2cc;strokeColor=#d6b656;" vertex="1" parent="1">
          <mxGeometry x="80" y="290" width="120" height="80" as="geometry" />
        </mxCell>
        <mxCell id="VeJX8Lp-VsLnqPYJJAG0-4" value="node-5" style="ellipse;whiteSpace=wrap;html=1;fillColor=#f8cecc;strokeColor=#b85450;" vertex="1" parent="1">
          <mxGeometry x="80" y="420" width="120" height="80" as="geometry" />
        </mxCell>
        <mxCell id="VeJX8Lp-VsLnqPYJJAG0-5" value="node-4" style="ellipse;whiteSpace=wrap;html=1;fillColor=#f8cecc;strokeColor=#b85450;" vertex="1" parent="1">
          <mxGeometry x="-80" y="420" width="120" height="80" as="geometry" />
        </mxCell>
        <mxCell id="VeJX8Lp-VsLnqPYJJAG0-17" style="rounded=0;orthogonalLoop=1;jettySize=auto;html=1;" edge="1" parent="1" source="VeJX8Lp-VsLnqPYJJAG0-6" target="VeJX8Lp-VsLnqPYJJAG0-9">
          <mxGeometry relative="1" as="geometry" />
        </mxCell>
        <mxCell id="VeJX8Lp-VsLnqPYJJAG0-6" value="node-7" style="ellipse;whiteSpace=wrap;html=1;" vertex="1" parent="1">
          <mxGeometry x="60" y="540" width="120" height="80" as="geometry" />
        </mxCell>
        <mxCell id="VeJX8Lp-VsLnqPYJJAG0-16" style="rounded=0;orthogonalLoop=1;jettySize=auto;html=1;entryX=0.995;entryY=0.465;entryDx=0;entryDy=0;entryPerimeter=0;" edge="1" parent="1" source="VeJX8Lp-VsLnqPYJJAG0-7" target="VeJX8Lp-VsLnqPYJJAG0-2">
          <mxGeometry relative="1" as="geometry" />
        </mxCell>
        <mxCell id="VeJX8Lp-VsLnqPYJJAG0-7" value="node-3" style="ellipse;whiteSpace=wrap;html=1;fillColor=#fff2cc;strokeColor=#d6b656;" vertex="1" parent="1">
          <mxGeometry x="510" y="290" width="120" height="80" as="geometry" />
        </mxCell>
        <mxCell id="VeJX8Lp-VsLnqPYJJAG0-8" value="node-8" style="ellipse;whiteSpace=wrap;html=1;fillColor=#f8cecc;strokeColor=#b85450;" vertex="1" parent="1">
          <mxGeometry x="320" y="540" width="120" height="80" as="geometry" />
        </mxCell>
        <mxCell id="VeJX8Lp-VsLnqPYJJAG0-20" style="rounded=0;orthogonalLoop=1;jettySize=auto;html=1;" edge="1" parent="1" source="VeJX8Lp-VsLnqPYJJAG0-9" target="VeJX8Lp-VsLnqPYJJAG0-19">
          <mxGeometry relative="1" as="geometry" />
        </mxCell>
        <mxCell id="VeJX8Lp-VsLnqPYJJAG0-9" value="node-10" style="ellipse;whiteSpace=wrap;html=1;fillColor=#fff2cc;strokeColor=#d6b656;" vertex="1" parent="1">
          <mxGeometry x="60" y="670" width="120" height="80" as="geometry" />
        </mxCell>
        <mxCell id="VeJX8Lp-VsLnqPYJJAG0-15" style="rounded=0;orthogonalLoop=1;jettySize=auto;html=1;" edge="1" parent="1" source="VeJX8Lp-VsLnqPYJJAG0-10" target="VeJX8Lp-VsLnqPYJJAG0-2">
          <mxGeometry relative="1" as="geometry" />
        </mxCell>
        <mxCell id="VeJX8Lp-VsLnqPYJJAG0-10" value="node-2" style="ellipse;whiteSpace=wrap;html=1;fillColor=#fff2cc;strokeColor=#d6b656;" vertex="1" parent="1">
          <mxGeometry x="310" y="290" width="120" height="80" as="geometry" />
        </mxCell>
        <mxCell id="VeJX8Lp-VsLnqPYJJAG0-18" value="node-9" style="ellipse;whiteSpace=wrap;html=1;fillColor=#f8cecc;strokeColor=#b85450;" vertex="1" parent="1">
          <mxGeometry x="500" y="540" width="120" height="80" as="geometry" />
        </mxCell>
        <mxCell id="VeJX8Lp-VsLnqPYJJAG0-19" value="node-11" style="ellipse;whiteSpace=wrap;html=1;fillColor=#f8cecc;strokeColor=#b85450;" vertex="1" parent="1">
          <mxGeometry x="60" y="820" width="120" height="80" as="geometry" />
        </mxCell>
      </root>
    </mxGraphModel>
  </diagram>
</mxfile>
